<svg width="600" height="600" viewBox="0 0 600 600" fill="none" xmlns="http://www.w3.org/2000/svg">
<path d="M263 43.5H341.5V448.5L187 392L117.5 338L123 305.5L99 312.5L125.5 251L108 255L224 58L263 43.5Z" fill="#A7A7A7"/>
<path d="M419.5 43.5H340.5V448.5L496 393L564.5 338L559.5 305.5L583.5 312.5L557 251L574.5 255L458.5 58L419.5 43.5Z" fill="#A7A7A7"/>
<path d="M285 142L341 116L398 142L446 219.5V266L418.5 303.5L394 320L376 344L344 352H338L306 344L288 320L263.5 304L237 266V219.5L285 142Z" fill="#E3E3E3"/>
<path d="M308.5 158L341 154L374 158L394.5 189L418.5 303.5L394 320L376 344L344 353H338L306 344L288 320L263.5 304L288 189.5L308.5 158Z" fill="#797979"/>
<path d="M308.5 158L341 154L374 158L394.5 189L392 226.5L345.5 255H336.5L290 224.5L288 189.5L308.5 158Z" fill="black"/>
<path d="M309.5 160L341 156L372.5 160.5L391.5 189.5L372.5 208L341 212.5L309.5 208L291 190L309.5 160Z" fill="#4E4E4E"/>
<path d="M291 196L304 208.5L313 225H295L291 196Z" fill="#4E4E4E"/>
<path d="M391 196L378 208.5L369 225H387L391 196Z" fill="#4E4E4E"/>
<path d="M319 214.5L335.5 223.5V237.5L332.5 240H323.5L320.5 237.5L319 214.5Z" fill="#4E4E4E"/>
<path d="M363.5 214.5L347 223.5V237.5L350 240H359L362 237.5L363.5 214.5Z" fill="#4E4E4E"/>
<path d="M338.003 254H341.503V353H338.003L306.003 344L288.003 320L263.5 304L306.003 305.5L338.003 284V254Z" fill="black"/>
<path d="M344 254H340.5V353H344L376 344L394 320L418.5 303.5L376 305.5L344 284V254Z" fill="black"/>
<path d="M312.5 307L339 291L340.5 312V327L338.5 335L321.5 333L312.5 310V307Z" fill="white"/>
<path d="M369.5 307L343 291L341.5 312V327L343.5 335L360.5 333L369.5 310V307Z" fill="white"/>
<path d="M230.5 104L245.5 136.5V142L240.5 159L217.5 153L216 127.5L230.5 104Z" fill="black"/>
<path d="M450 104L435 136.5V142L440 159L463 153L464.5 127.5L450 104Z" fill="black"/>
<path d="M228 120.5L234 125V130.5L223.5 132.5L228 120.5Z" fill="white"/>
<path d="M196.5 39L225 58L175 143L148 95.5L150.5 58L169.5 39H196.5Z" fill="#4E4E4E"/>
<path d="M485.5 39L457.5 58L507.5 143L534 95.5L531.5 58L512.5 39H485.5Z" fill="#4E4E4E"/>
<path d="M179 46L214.5 76L175 143L159.5 63.5L179 46Z" fill="black"/>
<path d="M503.5 46L468 76L507.5 143L523 63.5L503.5 46Z" fill="black"/>
<path d="M263.5 43.5H341.5V116L285 142L224 58L263.5 43.5Z" fill="#CCCCCC"/>
<path d="M419.5 43.5H340.5V116L398 142L458.5 58L419.5 43.5Z" fill="#CCCCCC"/>
<path d="M258.5 384.5H341V448.5L186.5 393L258.5 384.5Z" fill="#696969"/>
<path d="M423.5 384.5H341V448.5L495.5 393L423.5 384.5Z" fill="#696969"/>
<path d="M512 379L495 392L341 447.5V558.5L571.5 459L512 379Z" fill="#D5D5D5"/>
<path d="M128 346L187.002 392L341.002 447.5V558.5L68.5 441L128 346Z" fill="#D5D5D5"/>
<path d="M308 344.5L338 352H341V385L313 381L293.5 367.5L308 344.5Z" fill="#E3E3E3"/>
<path d="M374 344.5L344 352H341V385L369 381L388.5 367.5L374 344.5Z" fill="#E3E3E3"/>
<path d="M453 120.5L447 125V130.5L457.5 132.5L453 120.5Z" fill="white"/>
<path d="M571.5 459L512 379L509 486L571.5 459Z" fill="#FBBF24"/>
<path d="M559.5 243.5L590 300L479 226L559.5 243.5Z" fill="#FBBF24"/>
<path d="M543 201.5L576 256L479 226.25L543 201.5Z" fill="#F97316"/>
<path d="M169 378L187 392L229.5 435L275 530L198.5 497L151 422L169 378Z" fill="#F97316"/>
<path d="M103 386L151 422L198.5 497L174 486.5L103 386Z" fill="#A7A7A7"/>
<path d="M117.5 338L169 378L151 422L79.5 368.5L117.5 338Z" fill="#FBBF24"/>
<path d="M36 333L49 339L27 421.5L7 403.5L25.5 333H36Z" fill="#FBBF24"/>
<path d="M90 259L125.5 251L99 312.5L123 305.5L117.5 338L79.5 368.5L103 386L68.5 441L49 432L75 313L36 333L43 306.5H32.5L84 280.5L90 259Z" fill="#936706"/>
<path d="M36 333L75 313L49 432L27 421.5L49 339L36 333Z" fill="#D97706"/>
<path d="M99.5 239L134.5 210L108 255L90 259L99.5 239Z" fill="#D97706"/>
<path d="M87.5 216L138 204L134.5 210L99.5 239L90 259L84 280.5L32.5 306.5L53.5 245L87.5 216Z" fill="#FBBF24"/>
<path d="M187 392L262 419L275 530L229.5 435L187 392Z" fill="#A7A7A7"/>
<path d="M262 419L341 447.5L481 397L418.5 525L341.5 558L275 530L262 419Z" fill="#A7A7A7"/>
</svg>
